<?xml version="1.0" encoding="UTF-8"?>
<svg width="14px" height="10px" viewBox="0 0 14 10" version="1.1" xmlns="http://www.w3.org/2000/svg" xmlns:xlink="http://www.w3.org/1999/xlink">
    <!-- Generator: Sketch 50.2 (55047) - http://www.bohemiancoding.com/sketch -->
    <title>niveles_ic</title>
    <desc>Created with Sketch.</desc>
    <defs></defs>
    <g id="Page-1" stroke="none" stroke-width="1" fill="none" fill-rule="evenodd">
        <g id="Prototipo-con-telefono" transform="translate(-664.000000, -951.000000)" fill="#666666">
            <path d="M675.975263,954.125 L676.045465,954.125 C676.59775,954.125 677.045465,954.572715 677.045465,955.125 C677.045465,955.473613 676.863916,955.797064 676.566325,955.978642 L673.698232,957.728642 C673.541359,957.824361 673.361142,957.875 673.177373,957.875 L665.954535,957.875 C665.40225,957.875 664.954535,957.427285 664.954535,956.875 C664.954535,956.526387 665.136084,956.202936 665.433675,956.021358 L666.492997,955.375 L673.580798,955.375 C673.759314,955.375 673.934576,955.327213 674.088385,955.2366 L675.975263,954.125 Z M675.975263,957.25 L676.045465,957.25 C676.59775,957.25 677.045465,957.697715 677.045465,958.25 C677.045465,958.598613 676.863916,958.922064 676.566325,959.103642 L673.698232,960.853642 C673.541359,960.949361 673.361142,961 673.177373,961 L665.954535,961 C665.40225,961 664.954535,960.552285 664.954535,960 C664.954535,959.651387 665.136084,959.327936 665.433675,959.146358 L666.492997,958.5 L673.580798,958.5 C673.759314,958.5 673.934576,958.452213 674.088385,958.3616 L675.975263,957.25 Z M668.822627,951 L676.045465,951 C676.59775,951 677.045465,951.447715 677.045465,952 C677.045465,952.348613 676.863916,952.672064 676.566325,952.853642 L673.698232,954.603642 C673.541359,954.699361 673.361142,954.75 673.177373,954.75 L665.954535,954.75 C665.40225,954.75 664.954535,954.302285 664.954535,953.75 C664.954535,953.401387 665.136084,953.077936 665.433675,952.896358 L668.301768,951.146358 C668.458641,951.050639 668.638858,951 668.822627,951 Z" id="niveles_ic"></path>
        </g>
    </g>
</svg>