<?xml version="1.0" encoding="UTF-8"?>
<svg width="30px" height="26px" viewBox="0 0 30 26" version="1.1" xmlns="http://www.w3.org/2000/svg" xmlns:xlink="http://www.w3.org/1999/xlink">
    <!-- Generator: Sketch 48.2 (47327) - http://www.bohemiancoding.com/sketch -->
    <title>Estacionamientos</title>
    <desc>Created with Sketch.</desc>
    <defs></defs>
    <g id="Symbols" stroke="none" stroke-width="1" fill="none" fill-rule="evenodd">
        <g id="Estacionamientos" fill="#959595" fill-rule="nonzero">
            <g id="Group-21" transform="translate(3.000000, 0.000000)">
                <path d="M18.3793103,4.08562073e-14 L24.5022633,3.46921123 L24.5022633,10.4076337 L18.3793103,13.8768449 L12.2563574,10.4076337 L12.2563574,3.46921123 L18.3793103,4.08562073e-14 Z M20.3503009,3.69273597 L15.9029315,3.69273597 L15.9029315,10.775767 L20.3503009,10.775767 L20.3503009,9.99480474 L16.8850799,9.99480474 L16.8850799,7.57777601 L19.6904986,7.57777601 L19.6904986,6.82647056 L16.8850799,6.82647056 L16.8850799,4.47369822 L20.3503009,4.47369822 L20.3503009,3.69273597 Z" id="Combined-Shape"></path>
                <path d="M19.0066652,15.2951724 L2.12812458,15.2951724 L5.63022914,10.2865139 C5.63022914,10.2865139 5.75690323,10.0380245 6.34758621,10.0380245 L9.97115907,10.0380245 C9.97115907,10.0380245 10.8308076,10.0963293 10.7992258,9.50044049 C10.767297,9.18427586 10.5934238,8.96771524 10.2189544,8.96771524 C9.84969077,8.96771524 5.39805117,8.96771524 5.39805117,8.96771524 C5.39805117,8.96771524 5.17107898,8.97812681 4.9229366,9.40569522 C4.70151724,9.78537041 1.6051168,14.1086007 0.914482759,15.3111368 C0.413339266,15.4010234 0.0281112347,15.8914082 0.0281112347,16.487297 L0.0281112347,21.9780111 C0.0281112347,22.6426162 0.498020022,23.1701357 1.07794438,23.1701357 L2.12743048,23.1701357 L2.12743048,25.1080756 C2.12743048,25.4353459 2.33878532,25.6991057 2.60254505,25.6991057 L4.29546607,25.6991057 C4.55367297,25.6991057 4.76988654,25.4353459 4.76988654,25.1080756 L4.76988654,23.1701357 L15.3400578,23.1701357 L15.3400578,25.1295929 C15.3400578,25.4565161 15.5507186,25.7202759 15.8099666,25.7202759 L17.4813704,25.7202759 C17.7395773,25.7202759 17.9512792,25.4565161 17.9512792,25.1295929 L17.9512792,23.1701357 L19.0059711,23.1701357 C19.5862425,23.1701357 20.0558042,22.6426162 20.0558042,21.9780111 L20.0558042,16.487297 C20.0564983,15.8278977 19.5869366,15.2951724 19.0066652,15.2951724 Z M3.97478977,21.0472169 C2.97354394,21.0472169 2.1614416,20.2351146 2.1614416,19.2338687 C2.1614416,18.2322759 2.97319689,17.4205206 3.97478977,17.4205206 C4.97638265,17.4205206 5.78779088,18.2322759 5.78779088,19.2338687 C5.78779088,20.2351146 4.9760356,21.0472169 3.97478977,21.0472169 Z M16.1636129,21.0472169 C15.1623671,21.0472169 14.3502647,20.2351146 14.3502647,19.2338687 C14.3502647,18.2322759 15.1623671,17.4205206 16.1636129,17.4205206 C17.1648587,17.4205206 17.976267,18.2322759 17.976267,19.2338687 C17.976267,20.2351146 17.1648587,21.0472169 16.1636129,21.0472169 Z" id="Shape"></path>
            </g>
        </g>
    </g>
</svg>