<?xml version="1.0" encoding="UTF-8"?>
<svg width="30px" height="26px" viewBox="0 0 30 26" version="1.1" xmlns="http://www.w3.org/2000/svg" xmlns:xlink="http://www.w3.org/1999/xlink">
    <!-- Generator: Sketch 48.2 (47327) - http://www.bohemiancoding.com/sketch -->
    <title>Baños</title>
    <desc>Created with Sketch.</desc>
    <defs></defs>
    <g id="Symbols" stroke="none" stroke-width="1" fill="none" fill-rule="evenodd">
        <g id="Baños" fill="#959595" fill-rule="nonzero">
            <g id="Group-20" transform="translate(8.000000, 3.000000)">
                <path d="M7,17 C-0.25,17 0.25,10 0.25,10 C0.25,9.4 0.875,9 1.5,9 L12.625,9 C13.375,9 13.875,9.5 13.875,10 C14,10 14.375,17 7,17 Z" id="Shape"></path>
                <rect id="Rectangle-path" x="4" y="18" width="6.25" height="2"></rect>
                <path d="M11.5227273,0 L2.72727273,0 C2.04318182,0 1.75,0.3 1.75,1 L1.75,5 C1.75,5.7 2.04318182,6 2.72727273,6 L4.68181818,6 L4.68181818,8 L9.56818182,8 L9.56818182,6 L11.5227273,6 C12.2068182,6 12.5,5.6 12.5,5 L12.5,1 C12.5,0.4 12.2068182,0 11.5227273,0 Z M2.72727273,1 L5.65909091,1 L5.65909091,2 L2.72727273,2 L2.72727273,1 Z" id="Shape"></path>
            </g>
        </g>
    </g>
</svg>