<?xml version="1.0" encoding="UTF-8"?>
<svg width="30px" height="26px" viewBox="0 0 30 26" version="1.1" xmlns="http://www.w3.org/2000/svg" xmlns:xlink="http://www.w3.org/1999/xlink">
    <!-- Generator: Sketch 48.2 (47327) - http://www.bohemiancoding.com/sketch -->
    <title>Recamaras</title>
    <desc>Created with Sketch.</desc>
    <defs></defs>
    <g id="Symbols" stroke="none" stroke-width="1" fill="none" fill-rule="evenodd">
        <g id="Recamaras" fill="#959595">
            <path d="M23.3766234,8.34002361 L23.3766234,6.11688312 C23.3766234,5.56459837 22.9289081,5.11688312 22.3766234,5.11688312 L15.4155844,5.11688312 C15.0853422,5.11688312 14.7924891,5.27696452 14.6103896,5.52376262 C14.4282902,5.27696452 14.135437,5.11688312 13.8051948,5.11688312 L6.84415584,5.11688312 C6.29187109,5.11688312 5.84415584,5.56459837 5.84415584,6.11688312 L5.84415584,9.57142857 C5.84415584,9.67642682 5.86033813,9.77764549 5.89034475,9.87272663 L3.69282891,14.4675325 L26.3071711,14.4675325 L23.3766234,8.34002361 Z M28.255223,14.4675325 L30,14.4675325 L30,21.4805195 L30,23.038961 L27.6623377,23.038961 L27.6623377,21.4805195 L2.33766234,21.4805195 L2.33766234,23.038961 L0,23.038961 L0,21.4805195 L0,14.4675325 L1.74477696,14.4675325 L5.06493506,7.52538371 L5.06493506,2 L24.5454545,2 L24.5454545,6.7107438 L28.255223,14.4675325 Z M7.62337662,6 L13.025974,6 C13.5782588,6 14.025974,6.44771525 14.025974,7 L14.025974,9 C14.025974,9.55228475 13.5782588,10 13.025974,10 L7.62337662,10 C7.07109187,10 6.62337662,9.55228475 6.62337662,9 L6.62337662,7 C6.62337662,6.44771525 7.07109187,6 7.62337662,6 Z M16.1948052,6 L21.5974026,6 C22.1496873,6 22.5974026,6.44771525 22.5974026,7 L22.5974026,9 C22.5974026,9.55228475 22.1496873,10 21.5974026,10 L16.1948052,10 C15.6425204,10 15.1948052,9.55228475 15.1948052,9 L15.1948052,7 C15.1948052,6.44771525 15.6425204,6 16.1948052,6 Z" id="Combined-Shape"></path>
        </g>
    </g>
</svg>